<?xml version="1.0" encoding="UTF-8"?>
<svg id="Layer_1" data-name="Layer 1" xmlns="http://www.w3.org/2000/svg" xmlns:xlink="http://www.w3.org/1999/xlink" viewBox="0 0 1366 325.02">
  <defs>
    <style>
      .cls-1 {
        fill: none;
      }

      .cls-2 {
        clip-path: url(#clippath-1);
      }

      .cls-3 {
        clip-path: url(#clippath);
      }
    </style>
    <clipPath id="clippath">
      <rect class="cls-1" x="0" y="0" width="1366" height="325.02"/>
    </clipPath>
    <clipPath id="clippath-1">
      <rect class="cls-1" x="0" y="0" width="1366" height="325.02"/>
    </clipPath>
  </defs>
  <g class="cls-3">
    <g class="cls-2">
      <path d="M755.05,293.73c-14.03,1.18-28.31-1.28-28.31-1.28-4.06-.7-9.84-2.06-21.41-4.77-16.17-3.79-16.47-4.17-19.28-4-9.34.56-10.9,4.97-23.3,6.55-5.28.68-12.38,1.56-14.71-1.91-1.45-2.15.11-4.2,2.19-14.47,2.04-10.08,2.64-17.93,2.64-28.48V101.07c0-15.72-3.58-26.89-18.59-33.17-2.11-.88-4.13-1.81-5.34-3.81-.75-1.22-.8-4.11.01-5.31,1.64-2.43,4.42-3.27,7.02-4.11l10.1-3.28,9-2.9c8.08-2.61,15.79-5.63,24.13-7.61,3.77-.89,8.21-.62,12.31,0,5.55.84,11.31,6.9,11.33,13.04l.34,102.52,12.91-12.68c4.33-3.32,11.32-7.87,20.84-10.91,2.72-.87,14.11-4.31,29.18-2.73,5.4.57,19.26,2.2,33.41,11.96,2.42,1.67,13.08,9.25,21.27,23.52,13.56,23.61,10.17,47.75,8.7,57.21-1.53,9.83-4.46,28.73-19.67,45.45-20.56,22.59-48.76,24.96-54.77,25.47M773.76,251.04c5.68-15.98,5.56-29.69,4.68-46.58-.16-2.98-.9-5.84-1.47-8.79-1.73-8.94-4.76-17.54-10.44-24.73-2.15-2.72-4.63-5.02-7.28-7.28-3.02-2.59-9.96-5.4-13.78-6.02-3.63-.59-7.54-.55-11.2-.13-11.28,1.28-22.96,10.08-27.77,20.38-1.4,3.01-2.39,6.16-3.42,9.28l-.02,56.97c2.01,10.84,2.91,15.52,8.8,24.8,2.58,2.69,5.03,5.21,7.77,7.54,6.92,4.26,14.3,6.5,22.45,5.03,5.26-.95,10.55-2.98,14.67-6.35,8.24-6.76,13.42-14.03,17-24.1"/>
      <path d="M842.74,275.31c-.74-.88-15.4-18.75-9.08-40.69,2.8-9.71,8.53-16.14,12.01-19.44,4.71-3.62,10.13-7.18,16.32-10.39,28.47-14.73,56.88-13.31,72.42-11.14.32-3.65,2.49-30.13-3.14-44.41-1.04-2.64-2.82-6.97-7.2-9.66-2.83-1.74-6.27-2.57-10.16-2.28-12.07.91-17.7,7.87-21.22,18.81l-4.96,15.4c-1.57,4.86-4.03,9.1-7.65,12.6-7.12,6.89-20.33,6.41-28.33,1.26-8.25-5.32-10.06-13.87-8.23-23.14,1.25-6.3,4.54-11.13,8.99-15.55,4.04-4.01,8.15-7.28,13.33-9.88,6.33-3.18,11.38-5.07,14.07-5.89,20.66-6.34,41.87-4.83,45.55-4.54,11.49.9,21.29,1.67,32.84,7.36,6.39,3.14,14.93,7.56,20.73,17.37,5.05,8.55,5.53,17.04,5.45,21.43.04,23.04.08,46.07.12,69.11.08,3.9.16,7.8.24,11.69.03,3.57,1.06,5.83,1.88,7.15,3.21,5.15,10.49,10.53,16.85,11.11,1.5.14,2.95,1.46,3.53,2.46,2.48,4.29-2.36,9.27-6.64,11.31-12.75,6.08-26.58,6.99-38.33,5.42-9.83-1.31-13.42-3.43-15.23-4.68-7.17-4.96-10.4-12.9-10.92-14.23-.41-1.03-.69-1.92-.87-2.52l-5.63,5.61c-3.73,2.92-15.59,11.82-28.61,15.29-4.43,1.18-8.78,1.72-8.78,1.72-2.43.3-8.27.88-15.72,0-2.3-.27-4.21-.61-5.57-.89-2.4-.41-5.7-1.15-9.43-2.62-3.09-1.21-11.75-4.99-18.66-13.13M897.11,264.34c6.91,1.36,25.4.39,32.22-7.87,1.6-1.94,3.86-5.35,4.91-10.64l.13-38.53c-.87-.1-2.16-.23-3.71-.3-4.91-.23-30.29-1.44-41.98,15.51-4.9,7.11-8.75,19.43-3.3,30.23,3.34,6.61,8.64,10.5,11.73,11.6"/>
      <path d="M1259.04,143.38c5.81-5.79,12.71-10.21,19.88-14.11,8.53-4.64,18.24-6.76,27.93-6.1,11.35.78,18.32,3.45,25.51,12.36,3.14,3.89,4.11,9.07,4.53,13.85.54,6.15-.81,11.57-4.71,16.14-7.08,8.31-17.79,12.24-28.53,8.95-2.53-.77-5.59-2.05-7.51-3.93l-13.8-13.49c-.88-.86-2.84-1.76-4.03-2.15-7.57-2.46-13.71,2.43-19.14,6.44l-2.64,1.95c-4.88,3.6-8.71,8.27-12.82,12.78l-3.09,3.09c-.69.69-1.8,1.75-2.41,2.32-.16.15-1.2,1.19-.98,1.15l2.5-.12c4.93-.53,10.02-.9,14.98-.36l4.62.5c7.16.77,14.18,2.86,20.41,6.37,2.37,1.34,4.79,2.7,6.72,4.48,3.13,2.88,6.12,5.68,8.87,8.9,6.21,7.28,10.55,15.53,14.99,23.89l8.63,16.25c1.84,3.47,4.12,6.62,6.3,9.87,3.2,4.75,9.72,10.91,14.84,13.83,7.06,4.03,14.31,3.11,15.94,8.01.61,1.85.16,3.54-.11,4.48-3.15,10.7-24.11,13.65-30.83,14.6-11.84,1.67-18.87-.08-21.09-.7-5.89-1.65-10.44-4.46-11.01-4.82-2.02-1.26-3.65-2.54-4.93-3.63-10.72-9.2-18.6-22.04-25.02-34.53l-8.45-16.44c-5.31-10.33-16.84-32.48-30.61-31.22v32.3c0,9.67-.44,21.36,5.62,29.19,4.39,5.66,9.96,9.66,16.32,12.71,2.12,1.01,4.3,2.37,5.2,4.74.5,1.33.52,3.86-.03,5.37-.74,2.02-3.6,3.77-6.06,3.77l-93.26-.04c-3.16,0-6.29-3.02-6.59-5.66-.36-3.22,2.06-6.01,4.61-7.4,7.27-3.96,13.29-7.23,18.25-14.19,4.15-5.83,5.15-15.91,5.15-23.21V98.59c0-8.96-1.03-17.97-6.69-24.98-7.36-9.12-13.14-6.11-17.27-12.64-1.6-2.54-.2-5.92,2.6-7.27,1.74-.84,3.58-1.34,5.53-2.03,10.2-3.64,33.9-12.35,43.51-13.83,2.91-.45,6.15-.4,9.05-.18,6.52.5,13.62,7.71,13.62,14.54l.02,123.24c0-.44-.08,4.24.03,4.25h0"/>
      <path d="M1108,259.26c14.09.51,22.66-.86,35.61-6.42,3.28-1.41,9.78-5.47,12.63-2.06.81.97.91,2.82.2,4.23-3.32,6.54-9.82,14.11-15.46,18.82-3.95,3.29-9.37,7.07-17.38,10.67-7.95,3.57-14.47,4.95-18.41,5.76-4.32.88-11.99,2.15-21.66,1.93-4.07-.09-11.72-.48-21.2-2.79-13.44-3.28-26.95-10.75-36.57-20.64-5.7-5.86-9.35-11.24-10.99-13.92-5.42-8.86-7.58-16.61-8.89-21.44-3.1-11.41-3.22-20.56-3.21-23.41,0-3.68.27-12.21,2.98-22.13,1.75-6.4,7-25.91,25.37-40.89,13.08-10.66,30.27-17.54,47.09-18.64,5.94-.39,8.2-.6,14.1-.36,2.64.11,8.57.64,11.2,1.03,12.96,1.95,27.55,6.69,37.76,14.93,2.28,1.84,4.28,3.98,6.26,6.17,11.29,12.47,14.24,37.52-.66,46.22-3,1.75-6.34,2.38-6.34,2.38-.87.17-1.53.25-2.06.31-1.47.17-4.15.36-7.47-.11-2.61-.37-4.78-1.03-5.7-1.39-13.05-5.13-13.17-20.65-13.02-33.28.02-2.02-.36-3.9-.61-5.88-1.14-9.04-4.56-17-14.62-18.72-5.23-.89-10.59-1.08-15.89-.25-17.29,2.72-26.05,23.9-28.27,39.3-3.57,24.73,3.1,52.39,23.34,68.68,8.7,7,20.75,11.48,31.87,11.88"/>
      <path d="M200.48,292.89c-10.89-2.5-24.14-5.47-36.76-15.16-11.28-8.66-17.67-18.75-21.03-25.12-6.48-13.46-12.47-24.9-17.45-34.02-6.76-12.4-10.84-17.06-17.27-20.77-4.47-2.57-14.84-2.67-18.65.71l.1,49.24c0,2.48,2.43,11.03,4.2,14.05,3.57,6.09,9.11,10.5,15.34,13.58,3.24,1.59,10.54,6.08,8.79,10.42-.72,1.79-2.75,4.65-5.24,4.65l-95.63.03c-2.63,0-4.63-2.44-5.14-4.19-.33-1.13-.37-2.17-.17-3.12.39-1.83,1.58-3.02,2.23-3.62,3.81-3.53,15.83-11.39,19.62-14.98,3.36-3.18,6.91-9.3,6.14-22.32v-117.25c.46-11.85-3.74-18.56-5.76-21.25-3.38-4.51-7.89-7.67-7.89-7.67-6.21-4.57-10.96-5.07-13.6-9.39-.85-1.4-1.16-3.74-.41-5.35,1.12-2.41,3.68-4.5,6.67-4.5l91.76.03c3,0,6.2,1.9,6.89,4.21,1.42,4.77-2.91,8.5-6.25,10.25-10.15,5.31-12.36,8.09-16.5,13.32-2.22,2.8-4.79,7.55-5.06,15.68l-.05,59.61c10.48-13.29,20.97-26.58,31.45-39.87,6.56-8.64,13.12-17.28,19.67-25.91l17.2-21.27,10.81-12.44c3.54-3.9,7.19-7.84,10.95-11.81,5.17-5.45,10.31-10.68,15.39-15.69,4.54-4.3,17.59-15.45,37.34-17.25,7.07-.64,25.5-2.32,39.31,10.73,10.26,9.7,12.11,21.99,12.57,25.37.4,2.96,2.95,24.39-13.23,38.33-13.1,11.28-29.02,9.65-33.07,9.07-1.74-.25-16.54-2.57-27.16-14.45-7.23-8.09-7.31-14.75-13.29-15.96-4.37-.88-8.67,2-17.26,7.75-5.56,3.72-9.78,7.3-12.57,9.83l-21.29,21.33-30.51,36.97c-1.55,1.89-2.83,3.57-4.38,5.76,2.14-.58,5.27-1.3,9.11-1.66,20.72-1.93,37.46,8.89,43.69,13.53,9.48,7.05,18.66,17.88,32.67,42.21,2.18,3.78,4.03,7.26,6.87,10.72l.37-11.19.02-35.03c.21-12.83-3.43-18.56-7-21.38-4.73-3.74-10.92-5.8-16.24-10.7-1.3-1.2-1.77-3.49-1.39-5.23.42-1.98,2.27-3.11,3.21-3.67,21.75-12.88,48.7-15.41,48.7-15.41,11.35-1.07,15.31-.56,18.39,2.1,4.96,4.28,4.95,11.85,4.9,15.5-.25,16.21-2.33,78.46,2,104.5,1.48,8.94,4.06,14.55,8.73,17.32,3.74,2.21,11.01,1.64,12.97,4.78,1.45,2.32.44,5.27.22,5.95-3.83,11.92-35.66,14.03-53.62,13.3-11.07-.45-19.51-2.09-24.39-3.21M276.84,77.63c0-18.64-15.13-33.75-33.79-33.75s-33.79,15.11-33.79,33.75,15.13,33.75,33.79,33.75,33.79-15.11,33.79-33.75"/>
      <path d="M386.29,259.26c14.09.51,22.66-.86,35.61-6.42,3.28-1.41,9.78-5.47,12.63-2.06.81.97.91,2.82.2,4.23-3.32,6.54-9.82,14.11-15.46,18.82-3.95,3.29-9.37,7.07-17.38,10.67-7.95,3.57-14.47,4.95-18.41,5.76-4.32.88-11.99,2.15-21.66,1.93-4.07-.09-11.72-.48-21.2-2.79-13.44-3.28-26.95-10.75-36.57-20.64-5.7-5.86-9.35-11.24-10.99-13.92-5.42-8.86-7.58-16.61-8.89-21.44-3.1-11.41-3.22-20.56-3.21-23.41,0-3.68.27-12.21,2.98-22.13,1.75-6.4,7-25.91,25.37-40.89,13.08-10.66,30.27-17.54,47.09-18.64,5.94-.39,8.2-.6,14.1-.36,2.64.11,8.57.64,11.2,1.03,12.96,1.95,27.55,6.69,37.76,14.93,2.28,1.84,4.28,3.98,6.26,6.17,11.29,12.47,14.24,37.52-.66,46.22-3,1.75-6.34,2.38-6.34,2.38-.87.17-1.53.25-2.06.31-1.47.17-4.15.36-7.47-.11-2.61-.37-4.78-1.03-5.7-1.39-13.05-5.13-13.17-20.65-13.02-33.28.02-2.02-.36-3.9-.61-5.88-1.14-9.04-4.56-17-14.62-18.72-5.23-.89-10.59-1.08-15.89-.25-17.29,2.72-26.05,23.9-28.27,39.3-3.57,24.73,3.1,52.39,23.34,68.68,8.7,7,20.75,11.48,31.87,11.88"/>
      <path d="M539.27,143.99c5.81-5.79,12.71-10.21,19.88-14.11,8.53-4.64,18.24-6.76,27.93-6.1,11.35.78,18.32,3.45,25.51,12.36,3.14,3.89,4.11,9.07,4.53,13.85.54,6.15-.81,11.57-4.71,16.14-7.08,8.31-17.79,12.24-28.53,8.95-2.53-.77-5.59-2.05-7.51-3.93l-13.8-13.49c-.88-.86-2.84-1.76-4.03-2.15-7.57-2.46-13.71,2.43-19.14,6.44l-2.64,1.95c-4.88,3.6-8.71,8.27-12.82,12.78l-3.09,3.09c-.69.69-1.8,1.75-2.41,2.32-.16.15-1.2,1.19-.98,1.15l2.5-.12c4.93-.53,10.02-.9,14.98-.36l4.62.5c7.16.77,14.18,2.86,20.41,6.37,2.37,1.34,4.79,2.7,6.72,4.48,3.13,2.88,6.12,5.68,8.87,8.9,6.21,7.28,10.55,15.53,14.99,23.89l8.63,16.25c1.84,3.47,4.12,6.62,6.3,9.87,3.2,4.75,9.72,10.91,14.84,13.83,7.06,4.03,14.31,3.11,15.94,8.01.61,1.85.16,3.54-.11,4.48-3.15,10.7-24.11,13.65-30.83,14.6-11.84,1.67-18.87-.08-21.09-.7-5.89-1.65-10.44-4.46-11.01-4.82-2.02-1.26-3.65-2.54-4.93-3.63-10.72-9.2-18.6-22.04-25.02-34.53l-8.45-16.44c-5.31-10.33-16.84-32.48-30.61-31.22v32.3c0,9.67-.44,21.36,5.62,29.19,4.39,5.66,9.96,9.66,16.32,12.71,2.12,1.01,4.3,2.37,5.2,4.74.5,1.33.52,3.86-.03,5.37-.74,2.02-3.6,3.77-6.06,3.77l-93.26-.04c-3.16,0-6.29-3.02-6.59-5.66-.36-3.22,2.06-6.01,4.61-7.4,7.27-3.96,13.29-7.23,18.25-14.19,4.15-5.83,5.15-15.91,5.15-23.21V99.2c0-8.96-1.03-17.97-6.69-24.98-7.36-9.12-13.14-6.11-17.27-12.64-1.6-2.54-.2-5.92,2.6-7.27,1.74-.84,3.58-1.34,5.53-2.03,10.2-3.64,33.9-12.35,43.51-13.83,2.91-.45,6.15-.4,9.05-.18,6.52.5,13.62,7.71,13.62,14.54l.02,123.24c0-.44-.08,4.24.03,4.25h0"/>
    </g>
  </g>
</svg>